<?xml version="1.0" standalone="no"?><svg xmlns="http://www.w3.org/2000/svg" viewBox="0 0 1440 320"><path fill="#ffffff" fill-opacity="1" d="M0,0L6.9,42.7C13.7,85,27,171,41,170.7C54.9,171,69,85,82,85.3C96,85,110,171,123,197.3C137.1,224,151,192,165,186.7C178.3,181,192,203,206,192C219.4,181,233,139,247,106.7C260.6,75,274,53,288,42.7C301.7,32,315,32,329,32C342.9,32,357,32,370,80C384,128,398,224,411,250.7C425.1,277,439,235,453,234.7C466.3,235,480,277,494,288C507.4,299,521,277,535,266.7C548.6,256,562,256,576,224C589.7,192,603,128,617,96C630.9,64,645,64,658,58.7C672,53,686,43,699,42.7C713.1,43,727,53,741,64C754.3,75,768,85,782,106.7C795.4,128,809,160,823,154.7C836.6,149,850,107,864,106.7C877.7,107,891,149,905,160C918.9,171,933,149,946,165.3C960,181,974,235,987,213.3C1001.1,192,1015,96,1029,90.7C1042.3,85,1056,171,1070,192C1083.4,213,1097,171,1111,170.7C1124.6,171,1138,213,1152,218.7C1165.7,224,1179,192,1193,160C1206.9,128,1221,96,1234,122.7C1248,149,1262,235,1275,261.3C1289.1,288,1303,256,1317,234.7C1330.3,213,1344,203,1358,197.3C1371.4,192,1385,192,1399,181.3C1412.6,171,1426,149,1433,138.7L1440,128L1440,320L1433.1,320C1426.3,320,1413,320,1399,320C1385.1,320,1371,320,1358,320C1344,320,1330,320,1317,320C1302.9,320,1289,320,1275,320C1261.7,320,1248,320,1234,320C1220.6,320,1207,320,1193,320C1179.4,320,1166,320,1152,320C1138.3,320,1125,320,1111,320C1097.1,320,1083,320,1070,320C1056,320,1042,320,1029,320C1014.9,320,1001,320,987,320C973.7,320,960,320,946,320C932.6,320,919,320,905,320C891.4,320,878,320,864,320C850.3,320,837,320,823,320C809.1,320,795,320,782,320C768,320,754,320,741,320C726.9,320,713,320,699,320C685.7,320,672,320,658,320C644.6,320,631,320,617,320C603.4,320,590,320,576,320C562.3,320,549,320,535,320C521.1,320,507,320,494,320C480,320,466,320,453,320C438.9,320,425,320,411,320C397.7,320,384,320,370,320C356.6,320,343,320,329,320C315.4,320,302,320,288,320C274.3,320,261,320,247,320C233.1,320,219,320,206,320C192,320,178,320,165,320C150.9,320,137,320,123,320C109.7,320,96,320,82,320C68.6,320,55,320,41,320C27.4,320,14,320,7,320L0,320Z"></path></svg>